<mxfile host="app.diagrams.net" agent="Mozilla/5.0 (Windows NT 10.0; Win64; x64) AppleWebKit/537.36 (KHTML, like Gecko) Chrome/137.0.0.0 Safari/537.36" version="27.1.4">
  <diagram name="第 1 页" id="KcsCPuVRccA3-YZ6nfQP">
    <mxGraphModel dx="1293" dy="1347" grid="1" gridSize="10" guides="1" tooltips="1" connect="1" arrows="0" fold="1" page="0" pageScale="1" pageWidth="827" pageHeight="1169" background="none" math="0" shadow="0">
      <root>
        <mxCell id="0" />
        <mxCell id="1" parent="0" />
        <mxCell id="mwyf-39MISbqM0-vQmmL-9" style="edgeStyle=orthogonalEdgeStyle;rounded=0;orthogonalLoop=1;jettySize=auto;html=1;exitX=0.5;exitY=1;exitDx=0;exitDy=0;" edge="1" parent="1" source="JKeBqNWXjQjxaJ3em_yk-1" target="JKeBqNWXjQjxaJ3em_yk-4">
          <mxGeometry relative="1" as="geometry" />
        </mxCell>
        <mxCell id="mwyf-39MISbqM0-vQmmL-10" style="edgeStyle=orthogonalEdgeStyle;rounded=0;orthogonalLoop=1;jettySize=auto;html=1;exitX=1;exitY=0.5;exitDx=0;exitDy=0;entryX=0;entryY=0.5;entryDx=0;entryDy=0;" edge="1" parent="1" source="JKeBqNWXjQjxaJ3em_yk-1" target="JKeBqNWXjQjxaJ3em_yk-11">
          <mxGeometry relative="1" as="geometry" />
        </mxCell>
        <mxCell id="JKeBqNWXjQjxaJ3em_yk-1" value="首頁" style="rounded=1;whiteSpace=wrap;html=1;" parent="1" vertex="1">
          <mxGeometry x="115" y="80" width="120" height="60" as="geometry" />
        </mxCell>
        <mxCell id="JKeBqNWXjQjxaJ3em_yk-2" value="簽到頁" style="rounded=1;whiteSpace=wrap;html=1;" parent="1" vertex="1">
          <mxGeometry x="-180" y="30" width="110" height="50" as="geometry" />
        </mxCell>
        <mxCell id="JKeBqNWXjQjxaJ3em_yk-4" value="公告" style="rounded=1;whiteSpace=wrap;html=1;" parent="1" vertex="1">
          <mxGeometry x="120" y="200" width="110" height="50" as="geometry" />
        </mxCell>
        <mxCell id="mwyf-39MISbqM0-vQmmL-23" style="edgeStyle=orthogonalEdgeStyle;rounded=0;orthogonalLoop=1;jettySize=auto;html=1;exitX=0.5;exitY=1;exitDx=0;exitDy=0;entryX=0.5;entryY=0;entryDx=0;entryDy=0;" edge="1" parent="1" source="JKeBqNWXjQjxaJ3em_yk-8" target="JKeBqNWXjQjxaJ3em_yk-9">
          <mxGeometry relative="1" as="geometry" />
        </mxCell>
        <mxCell id="JKeBqNWXjQjxaJ3em_yk-8" value="登入" style="rounded=1;whiteSpace=wrap;html=1;" parent="1" vertex="1">
          <mxGeometry x="270" y="160" width="90" height="40" as="geometry" />
        </mxCell>
        <mxCell id="JKeBqNWXjQjxaJ3em_yk-9" value="登出" style="ellipse;whiteSpace=wrap;html=1;" parent="1" vertex="1">
          <mxGeometry x="290" y="220" width="50" height="30" as="geometry" />
        </mxCell>
        <mxCell id="mwyf-39MISbqM0-vQmmL-11" style="edgeStyle=orthogonalEdgeStyle;rounded=0;orthogonalLoop=1;jettySize=auto;html=1;exitX=0.5;exitY=1;exitDx=0;exitDy=0;" edge="1" parent="1" source="JKeBqNWXjQjxaJ3em_yk-11" target="JKeBqNWXjQjxaJ3em_yk-8">
          <mxGeometry relative="1" as="geometry" />
        </mxCell>
        <mxCell id="mwyf-39MISbqM0-vQmmL-24" style="edgeStyle=orthogonalEdgeStyle;rounded=0;orthogonalLoop=1;jettySize=auto;html=1;exitX=1;exitY=0.5;exitDx=0;exitDy=0;entryX=0;entryY=0.5;entryDx=0;entryDy=0;" edge="1" parent="1" source="JKeBqNWXjQjxaJ3em_yk-11" target="mwyf-39MISbqM0-vQmmL-4">
          <mxGeometry relative="1" as="geometry" />
        </mxCell>
        <mxCell id="mwyf-39MISbqM0-vQmmL-25" style="edgeStyle=orthogonalEdgeStyle;rounded=0;orthogonalLoop=1;jettySize=auto;html=1;exitX=1;exitY=0.5;exitDx=0;exitDy=0;entryX=0;entryY=0.5;entryDx=0;entryDy=0;" edge="1" parent="1" source="JKeBqNWXjQjxaJ3em_yk-11" target="an5DiUaol9ZiSNuQ8crz-18">
          <mxGeometry relative="1" as="geometry" />
        </mxCell>
        <mxCell id="mwyf-39MISbqM0-vQmmL-26" style="edgeStyle=orthogonalEdgeStyle;rounded=0;orthogonalLoop=1;jettySize=auto;html=1;exitX=1;exitY=0.5;exitDx=0;exitDy=0;entryX=0;entryY=0.5;entryDx=0;entryDy=0;" edge="1" parent="1" source="JKeBqNWXjQjxaJ3em_yk-11" target="an5DiUaol9ZiSNuQ8crz-17">
          <mxGeometry relative="1" as="geometry" />
        </mxCell>
        <mxCell id="mwyf-39MISbqM0-vQmmL-27" style="edgeStyle=orthogonalEdgeStyle;rounded=0;orthogonalLoop=1;jettySize=auto;html=1;exitX=1;exitY=0.5;exitDx=0;exitDy=0;entryX=0;entryY=0.5;entryDx=0;entryDy=0;" edge="1" parent="1" source="JKeBqNWXjQjxaJ3em_yk-11" target="JKeBqNWXjQjxaJ3em_yk-14">
          <mxGeometry relative="1" as="geometry" />
        </mxCell>
        <mxCell id="JKeBqNWXjQjxaJ3em_yk-11" value="權限識別" style="rhombus;whiteSpace=wrap;html=1;" parent="1" vertex="1">
          <mxGeometry x="275" y="95" width="80" height="30" as="geometry" />
        </mxCell>
        <mxCell id="JKeBqNWXjQjxaJ3em_yk-12" value="換班申請" style="rounded=1;whiteSpace=wrap;html=1;dashed=1;dashPattern=12 12;" parent="1" vertex="1">
          <mxGeometry x="1060" y="580" width="90" height="40" as="geometry" />
        </mxCell>
        <mxCell id="mwyf-39MISbqM0-vQmmL-22" style="edgeStyle=orthogonalEdgeStyle;rounded=0;orthogonalLoop=1;jettySize=auto;html=1;exitX=0.5;exitY=1;exitDx=0;exitDy=0;entryX=0.5;entryY=1;entryDx=0;entryDy=0;" edge="1" parent="1" source="JKeBqNWXjQjxaJ3em_yk-14" target="JKeBqNWXjQjxaJ3em_yk-4">
          <mxGeometry relative="1" as="geometry">
            <Array as="points">
              <mxPoint x="465" y="300" />
              <mxPoint x="175" y="300" />
            </Array>
          </mxGeometry>
        </mxCell>
        <mxCell id="JKeBqNWXjQjxaJ3em_yk-14" value="編輯公告" style="rounded=1;whiteSpace=wrap;html=1;fillColor=#ffe6cc;strokeColor=#d79b00;" parent="1" vertex="1">
          <mxGeometry x="420" y="215" width="90" height="40" as="geometry" />
        </mxCell>
        <mxCell id="JKeBqNWXjQjxaJ3em_yk-16" value="登出" style="ellipse;whiteSpace=wrap;html=1;" parent="1" vertex="1">
          <mxGeometry x="630" y="640" width="50" height="30" as="geometry" />
        </mxCell>
        <mxCell id="JKeBqNWXjQjxaJ3em_yk-17" value="出勤率(個人)" style="rounded=1;whiteSpace=wrap;html=1;" parent="1" vertex="1">
          <mxGeometry x="770" y="880" width="90" height="40" as="geometry" />
        </mxCell>
        <mxCell id="JKeBqNWXjQjxaJ3em_yk-18" value="考勤查詢" style="rounded=1;whiteSpace=wrap;html=1;fillColor=#ffe6cc;strokeColor=#d79b00;dashed=1;dashPattern=1 4;" parent="1" vertex="1">
          <mxGeometry x="-170" y="110" width="90" height="40" as="geometry" />
        </mxCell>
        <mxCell id="JKeBqNWXjQjxaJ3em_yk-19" value="班表調整" style="rounded=1;whiteSpace=wrap;html=1;fillColor=#ffe6cc;strokeColor=#d79b00;dashed=1;dashPattern=12 12;" parent="1" vertex="1">
          <mxGeometry x="-170" y="350" width="90" height="40" as="geometry" />
        </mxCell>
        <mxCell id="JKeBqNWXjQjxaJ3em_yk-30" value="" style="swimlane;startSize=0;" parent="1" vertex="1">
          <mxGeometry x="-350" y="70" width="150" height="180" as="geometry">
            <mxRectangle x="40" y="80" width="50" height="40" as="alternateBounds" />
          </mxGeometry>
        </mxCell>
        <mxCell id="JKeBqNWXjQjxaJ3em_yk-20" value="QR碼?每日變更?&lt;div&gt;雙平台?&lt;br&gt;持續登入?&lt;br&gt;&lt;/div&gt;&lt;div&gt;公告:自動產生新頁面?&lt;/div&gt;" style="text;html=1;align=center;verticalAlign=middle;resizable=0;points=[];autosize=1;strokeColor=none;fillColor=none;" parent="JKeBqNWXjQjxaJ3em_yk-30" vertex="1">
          <mxGeometry y="15" width="140" height="70" as="geometry" />
        </mxCell>
        <mxCell id="JKeBqNWXjQjxaJ3em_yk-33" value="" style="swimlane;startSize=0;" parent="1" vertex="1">
          <mxGeometry x="245" y="-210" width="270" height="90" as="geometry" />
        </mxCell>
        <mxCell id="JKeBqNWXjQjxaJ3em_yk-34" value="權限&#xa;1.一般員工:個人資料、班表&#xa;2.管理者:個人資料、班表、管理員工、編輯公告" style="text;align=left;verticalAlign=middle;resizable=0;points=[];autosize=1;strokeColor=none;fillColor=none;rotation=0;spacing=2;spacingRight=0;" parent="JKeBqNWXjQjxaJ3em_yk-33" vertex="1">
          <mxGeometry x="10" y="25" width="270" height="60" as="geometry" />
        </mxCell>
        <mxCell id="an5DiUaol9ZiSNuQ8crz-3" value="Vertical Container" style="swimlane;whiteSpace=wrap;html=1;" parent="1" vertex="1">
          <mxGeometry x="750" y="710" width="140" height="130" as="geometry" />
        </mxCell>
        <mxCell id="an5DiUaol9ZiSNuQ8crz-2" value="出勤率:圓餅圖(當月)&lt;div&gt;&lt;span style=&quot;background-color: transparent; color: light-dark(rgb(0, 0, 0), rgb(255, 255, 255));&quot;&gt;請假&lt;/span&gt;&lt;span style=&quot;background-color: transparent; color: light-dark(rgb(0, 0, 0), rgb(255, 255, 255));&quot;&gt;:柱狀圖(當月)&lt;/span&gt;&lt;/div&gt;" style="text;html=1;align=center;verticalAlign=middle;resizable=0;points=[];autosize=1;strokeColor=none;fillColor=none;" parent="an5DiUaol9ZiSNuQ8crz-3" vertex="1">
          <mxGeometry y="40" width="130" height="40" as="geometry" />
        </mxCell>
        <mxCell id="an5DiUaol9ZiSNuQ8crz-4" value="Vertical Container" style="swimlane;whiteSpace=wrap;html=1;" parent="1" vertex="1">
          <mxGeometry x="600" y="710" width="140" height="130" as="geometry" />
        </mxCell>
        <mxCell id="an5DiUaol9ZiSNuQ8crz-5" value="&lt;div&gt;出勤率:圓餅圖(當日)&lt;/div&gt;" style="text;html=1;align=center;verticalAlign=middle;resizable=0;points=[];autosize=1;strokeColor=none;fillColor=none;" parent="an5DiUaol9ZiSNuQ8crz-4" vertex="1">
          <mxGeometry x="5" y="50" width="130" height="30" as="geometry" />
        </mxCell>
        <mxCell id="an5DiUaol9ZiSNuQ8crz-6" value="首頁" style="swimlane;whiteSpace=wrap;html=1;" parent="1" vertex="1">
          <mxGeometry x="105" y="-60" width="140" height="110" as="geometry" />
        </mxCell>
        <mxCell id="an5DiUaol9ZiSNuQ8crz-8" value="公告:最近五條&lt;div&gt;&lt;font style=&quot;color: rgb(207, 207, 207);&quot;&gt;班表:今日班表&lt;/font&gt;&lt;/div&gt;&lt;div&gt;&lt;font style=&quot;color: rgb(207, 207, 207);&quot;&gt;今日出勤&lt;/font&gt;&lt;/div&gt;" style="text;html=1;align=center;verticalAlign=middle;resizable=0;points=[];autosize=1;strokeColor=none;fillColor=none;" parent="an5DiUaol9ZiSNuQ8crz-6" vertex="1">
          <mxGeometry x="20" y="35" width="100" height="60" as="geometry" />
        </mxCell>
        <mxCell id="an5DiUaol9ZiSNuQ8crz-17" value="管理員工&lt;br&gt;(修改員工資料)" style="rounded=1;whiteSpace=wrap;html=1;fillColor=#ffe6cc;strokeColor=#d79b00;" parent="1" vertex="1">
          <mxGeometry x="420" y="135" width="90" height="40" as="geometry" />
        </mxCell>
        <mxCell id="mwyf-39MISbqM0-vQmmL-19" style="edgeStyle=orthogonalEdgeStyle;rounded=0;orthogonalLoop=1;jettySize=auto;html=1;exitX=1;exitY=0.5;exitDx=0;exitDy=0;entryX=0;entryY=0.5;entryDx=0;entryDy=0;" edge="1" parent="1" source="an5DiUaol9ZiSNuQ8crz-18" target="HuT5ZroK48-bMEiyqUHC-5">
          <mxGeometry relative="1" as="geometry" />
        </mxCell>
        <mxCell id="an5DiUaol9ZiSNuQ8crz-18" value="班表" style="rounded=1;whiteSpace=wrap;html=1;" parent="1" vertex="1">
          <mxGeometry x="420" y="-70" width="90" height="40" as="geometry" />
        </mxCell>
        <mxCell id="HuT5ZroK48-bMEiyqUHC-2" value="補簽到" style="rounded=1;whiteSpace=wrap;html=1;dashed=1;dashPattern=1 4;" parent="1" vertex="1">
          <mxGeometry x="-170" y="180" width="90" height="40" as="geometry" />
        </mxCell>
        <mxCell id="HuT5ZroK48-bMEiyqUHC-3" value="加班申請" style="rounded=1;whiteSpace=wrap;html=1;dashed=1;dashPattern=1 4;" parent="1" vertex="1">
          <mxGeometry x="-170" y="250" width="90" height="40" as="geometry" />
        </mxCell>
        <mxCell id="mwyf-39MISbqM0-vQmmL-30" style="edgeStyle=orthogonalEdgeStyle;rounded=0;orthogonalLoop=1;jettySize=auto;html=1;exitX=0.5;exitY=1;exitDx=0;exitDy=0;entryX=0.5;entryY=0;entryDx=0;entryDy=0;" edge="1" parent="1" source="HuT5ZroK48-bMEiyqUHC-5" target="mwyf-39MISbqM0-vQmmL-4">
          <mxGeometry relative="1" as="geometry" />
        </mxCell>
        <mxCell id="HuT5ZroK48-bMEiyqUHC-5" value="通知:&lt;br&gt;換班請求" style="ellipse;whiteSpace=wrap;html=1;" parent="1" vertex="1">
          <mxGeometry x="590" y="-75" width="100" height="50" as="geometry" />
        </mxCell>
        <mxCell id="qe0T4hvB0G6LBK0HG2og-1" value="修改個人帳號" style="rounded=1;whiteSpace=wrap;html=1;" parent="1" vertex="1">
          <mxGeometry x="575" y="35" width="90" height="40" as="geometry" />
        </mxCell>
        <mxCell id="mwyf-39MISbqM0-vQmmL-14" style="edgeStyle=orthogonalEdgeStyle;rounded=0;orthogonalLoop=1;jettySize=auto;html=1;exitX=1;exitY=0.5;exitDx=0;exitDy=0;entryX=0;entryY=0.5;entryDx=0;entryDy=0;" edge="1" parent="1" source="mwyf-39MISbqM0-vQmmL-4" target="qe0T4hvB0G6LBK0HG2og-1">
          <mxGeometry relative="1" as="geometry" />
        </mxCell>
        <mxCell id="mwyf-39MISbqM0-vQmmL-4" value="個人資料" style="rounded=1;whiteSpace=wrap;html=1;" vertex="1" parent="1">
          <mxGeometry x="420" y="35" width="90" height="40" as="geometry" />
        </mxCell>
      </root>
    </mxGraphModel>
  </diagram>
</mxfile>
